# xmcd
#
# Track frame offsets: 
#        182
#        14670
#        28505
#        51737
#        63727
#        79317
#        98610
#        120575
#        140670
#        155355
#        167665
#        189352
#        207025
#        220780
#
# Disc length: 3182 seconds
#
# Revision: 7
# Processed by: cddbd v1.5.2PL0 Copyright (c) Steve Scherf et al.
# Submitted via: ExactAudioCopy v1.0b3
#
DISCID=c50c6c0e
DTITLE=Cole, Lloyd and The Commotions - 1984-1989
DYEAR=1989
DGENRE=Pop
TTITLE0=Perfect Skin
TTITLE1=Are You Ready To Be Heartbroken?
TTITLE2=Forest Fire
TTITLE3=You Will Never Be No Good
TTITLE4=Rattlesnakes
TTITLE5=Perfect Blue
TTITLE6=Brand New Friend
TTITLE7=Cut Me Down
TTITLE8=Lost Weekend
TTITLE9=Her Last Fling
TTITLE10=Mr. Malcontent
TTITLE11=My Bag
TTITLE12=Jennifer She Said
TTITLE13=From The Hip
EXTD=YEAR: 1989
EXTT0=
EXTT1=
EXTT2=
EXTT3=
EXTT4=
EXTT5=
EXTT6=
EXTT7=
EXTT8=
EXTT9=
EXTT10=
EXTT11=
EXTT12=
EXTT13=
PLAYORDER=
